<svg xmlns="http://www.w3.org/2000/svg" width="1000" height="454" viewBox="0 0 1000 454" font-family="'JetBrains Mono','Fira Code','SFMono-Regular',Consolas,'Liberation Mono',monospace"><rect width="1000" height="454" rx="8" fill="#161B22"/><text x="24" y="30" font-size="13" fill="#E6EDF3">Project comparison</text><text x="976" y="30" font-size="11" text-anchor="end" fill="#8B949E">top 12 by latest activity</text><text x="190" y="58" font-size="11" fill="#8B949E">commits</text><text x="340" y="58" font-size="11" fill="#8B949E">active days (12m)</text><text x="490" y="58" font-size="11" fill="#8B949E">code size</text><text x="640" y="58" font-size="11" fill="#8B949E">age</text><text x="790" y="58" font-size="11" fill="#8B949E">language mix</text><rect x="12" y="70" width="976" height="30" rx="4" fill="#0D1117" opacity=".45"/><rect x="24" y="77" width="4" height="16" rx="1" fill="#6E8CA8"/><text x="36" y="89" font-size="12" fill="#E6EDF3">SwiftShare</text><rect x="190" y="79" width="86.0" height="12" rx="2" fill="#6E8CA8"/><text x="282.0" y="89" font-size="11" fill="#8B949E">42</text><rect x="340" y="79" width="86.0" height="12" rx="2" fill="#6E8CA8"/><text x="432.0" y="89" font-size="11" fill="#8B949E">10</text><rect x="490" y="79" width="86.0" height="12" rx="2" fill="#6E8CA8"/><text x="582.0" y="89" font-size="11" fill="#8B949E">703 KB</text><rect x="640" y="79" width="56.4" height="12" rx="2" fill="#6E8CA8"/><text x="702.4" y="89" font-size="11" fill="#8B949E">13 mo</text><rect x="790.0" y="79" width="60.6" height="12" fill="#00B4AB"><title>Dart 36%</title></rect><rect x="850.6" y="79" width="55.4" height="12" fill="#3178C6"><title>TypeScript 33%</title></rect><rect x="906.0" y="79" width="28.1" height="12" fill="#DEA584"><title>Rust 17%</title></rect><rect x="934.1" y="79" width="22.5" height="12" fill="#F1E05A"><title>JavaScript 13%</title></rect><rect x="956.6" y="79" width="2.1" height="12" fill="#663399"><title>CSS 1%</title></rect><rect x="958.7" y="79" width="0.8" height="12" fill="#3572A5"><title>Python 0%</title></rect><rect x="959.5" y="79" width="0.5" height="12" fill="#384D54"><title>Dockerfile 0%</title></rect><rect x="960.0" y="79" width="0.0" height="12" fill="#A97BFF"><title>Kotlin 0%</title></rect><rect x="24" y="107" width="4" height="16" rx="1" fill="#6F9A82"/><text x="36" y="119" font-size="12" fill="#E6EDF3">gps-mock</text><rect x="190" y="109" width="6.1" height="12" rx="2" fill="#6F9A82"/><text x="202.1" y="119" font-size="11" fill="#8B949E">3</text><rect x="340" y="109" width="8.6" height="12" rx="2" fill="#6F9A82"/><text x="354.6" y="119" font-size="11" fill="#8B949E">1</text><rect x="490" y="109" width="62.6" height="12" rx="2" fill="#6F9A82"/><text x="558.6" y="119" font-size="11" fill="#8B949E">512 KB</text><rect x="640" y="109" width="1.5" height="12" rx="2" fill="#6F9A82"/><text x="647.5" y="119" font-size="11" fill="#8B949E">6 d</text><rect x="790.0" y="109" width="141.2" height="12" fill="#00B4AB"><title>Dart 83%</title></rect><rect x="931.2" y="109" width="28.8" height="12" fill="#A97BFF"><title>Kotlin 17%</title></rect><rect x="12" y="130" width="976" height="30" rx="4" fill="#0D1117" opacity=".45"/><rect x="24" y="137" width="4" height="16" rx="1" fill="#6E8CA8"/><text x="36" y="149" font-size="12" fill="#E6EDF3">Space</text><rect x="190" y="139" width="51.2" height="12" rx="2" fill="#6E8CA8"/><text x="247.2" y="149" font-size="11" fill="#8B949E">25</text><rect x="340" y="139" width="77.4" height="12" rx="2" fill="#6E8CA8"/><text x="423.4" y="149" font-size="11" fill="#8B949E">9</text><rect x="490" y="139" width="56.4" height="12" rx="2" fill="#6E8CA8"/><text x="552.4" y="149" font-size="11" fill="#8B949E">461 KB</text><rect x="640" y="139" width="9.2" height="12" rx="2" fill="#6E8CA8"/><text x="655.2" y="149" font-size="11" fill="#8B949E">2 mo</text><rect x="790.0" y="139" width="124.1" height="12" fill="#00B4AB"><title>Dart 73%</title></rect><rect x="914.1" y="139" width="40.4" height="12" fill="#DEA584"><title>Rust 24%</title></rect><rect x="954.5" y="139" width="2.6" height="12" fill="#336790"><title>PLpgSQL 2%</title></rect><rect x="957.1" y="139" width="0.7" height="12" fill="#B07219"><title>Java 0%</title></rect><rect x="957.8" y="139" width="0.6" height="12" fill="#555555"><title>C 0%</title></rect><rect x="958.4" y="139" width="0.5" height="12" fill="#89E051"><title>Shell 0%</title></rect><rect x="959.0" y="139" width="0.5" height="12" fill="#3572A5"><title>Python 0%</title></rect><rect x="959.5" y="139" width="0.2" height="12" fill="#8B949E"><title>PowerShell 0%</title></rect><rect x="959.7" y="139" width="0.2" height="12" fill="#384D54"><title>Dockerfile 0%</title></rect><rect x="959.9" y="139" width="0.1" height="12" fill="#A97BFF"><title>Kotlin 0%</title></rect><rect x="24" y="167" width="4" height="16" rx="1" fill="#6F9A82"/><text x="36" y="179" font-size="12" fill="#E6EDF3">FieldTrace</text><rect x="190" y="169" width="2.0" height="12" rx="2" fill="#6F9A82"/><text x="198.0" y="179" font-size="11" fill="#8B949E">1</text><rect x="340" y="169" width="8.6" height="12" rx="2" fill="#6F9A82"/><text x="354.6" y="179" font-size="11" fill="#8B949E">1</text><rect x="490" y="169" width="36.0" height="12" rx="2" fill="#6F9A82"/><text x="532.0" y="179" font-size="11" fill="#8B949E">294 KB</text><rect x="640" y="169" width="2.6" height="12" rx="2" fill="#6F9A82"/><text x="648.6" y="179" font-size="11" fill="#8B949E">19 d</text><rect x="790.0" y="169" width="169.9" height="12" fill="#00B4AB"><title>Dart 100%</title></rect><rect x="959.9" y="169" width="0.1" height="12" fill="#A97BFF"><title>Kotlin 0%</title></rect><rect x="12" y="190" width="976" height="30" rx="4" fill="#0D1117" opacity=".45"/><rect x="24" y="197" width="4" height="16" rx="1" fill="#6F9A82"/><text x="36" y="209" font-size="12" fill="#E6EDF3">XpenseCalc</text><rect x="190" y="199" width="16.4" height="12" rx="2" fill="#6F9A82"/><text x="212.4" y="209" font-size="11" fill="#8B949E">8</text><rect x="340" y="199" width="43.0" height="12" rx="2" fill="#6F9A82"/><text x="389.0" y="209" font-size="11" fill="#8B949E">5</text><rect x="490" y="199" width="50.5" height="12" rx="2" fill="#6F9A82"/><text x="546.5" y="209" font-size="11" fill="#8B949E">413 KB</text><rect x="640" y="199" width="52.1" height="12" rx="2" fill="#6F9A82"/><text x="698.1" y="209" font-size="11" fill="#8B949E">12 mo</text><rect x="790.0" y="199" width="163.3" height="12" fill="#00B4AB"><title>Dart 96%</title></rect><rect x="953.3" y="199" width="5.6" height="12" fill="#A97BFF"><title>Kotlin 3%</title></rect><rect x="959.0" y="199" width="1.0" height="12" fill="#555555"><title>C 1%</title></rect><rect x="24" y="227" width="4" height="16" rx="1" fill="#8C956A"/><text x="36" y="239" font-size="12" fill="#E6EDF3">Procastinator</text><rect x="190" y="229" width="4.1" height="12" rx="2" fill="#8C956A"/><text x="200.1" y="239" font-size="11" fill="#8B949E">2</text><rect x="340" y="229" width="17.2" height="12" rx="2" fill="#8C956A"/><text x="363.2" y="239" font-size="11" fill="#8B949E">2</text><rect x="490" y="229" width="75.3" height="12" rx="2" fill="#8C956A"/><text x="571.3" y="239" font-size="11" fill="#8B949E">615 KB</text><rect x="640" y="229" width="34.9" height="12" rx="2" fill="#8C956A"/><text x="680.9" y="239" font-size="11" fill="#8B949E">8 mo</text><rect x="790.0" y="229" width="114.1" height="12" fill="#427819"><title>Makefile 67%</title></rect><rect x="904.1" y="229" width="54.7" height="12" fill="#00B4AB"><title>Dart 32%</title></rect><rect x="958.7" y="229" width="0.7" height="12" fill="#89E051"><title>Shell 0%</title></rect><rect x="959.4" y="229" width="0.6" height="12" fill="#555555"><title>C 0%</title></rect><rect x="960.0" y="229" width="0.0" height="12" fill="#A97BFF"><title>Kotlin 0%</title></rect><rect x="12" y="250" width="976" height="30" rx="4" fill="#0D1117" opacity=".45"/><rect x="24" y="257" width="4" height="16" rx="1" fill="#6F9A82"/><text x="36" y="269" font-size="12" fill="#E6EDF3">School-Management-S…</text><rect x="190" y="259" width="2.0" height="12" rx="2" fill="#6F9A82"/><text x="198.0" y="269" font-size="11" fill="#8B949E">1</text><rect x="340" y="259" width="1.5" height="12" rx="2" fill="#6F9A82"/><text x="347.5" y="269" font-size="11" fill="#8B949E">0</text><rect x="490" y="259" width="33.0" height="12" rx="2" fill="#6F9A82"/><text x="529.0" y="269" font-size="11" fill="#8B949E">270 KB</text><rect x="640" y="259" width="17.2" height="12" rx="2" fill="#6F9A82"/><text x="663.2" y="269" font-size="11" fill="#8B949E">4 mo</text><rect x="790.0" y="259" width="113.6" height="12" fill="#00B4AB"><title>Dart 67%</title></rect><rect x="903.6" y="259" width="34.5" height="12" fill="#3572A5"><title>Python 20%</title></rect><rect x="938.1" y="259" width="20.7" height="12" fill="#3178C6"><title>TypeScript 12%</title></rect><rect x="958.8" y="259" width="1.1" height="12" fill="#555555"><title>C 1%</title></rect><rect x="959.9" y="259" width="0.1" height="12" fill="#A97BFF"><title>Kotlin 0%</title></rect><rect x="24" y="287" width="4" height="16" rx="1" fill="#8A7FA8"/><text x="36" y="299" font-size="12" fill="#E6EDF3">indiamart-data-engi…</text><rect x="190" y="289" width="4.1" height="12" rx="2" fill="#8A7FA8"/><text x="200.1" y="299" font-size="11" fill="#8B949E">2</text><rect x="340" y="289" width="17.2" height="12" rx="2" fill="#8A7FA8"/><text x="363.2" y="299" font-size="11" fill="#8B949E">2</text><rect x="490" y="289" width="7.8" height="12" rx="2" fill="#8A7FA8"/><text x="503.8" y="299" font-size="11" fill="#8B949E">64 KB</text><rect x="640" y="289" width="20.9" height="12" rx="2" fill="#8A7FA8"/><text x="666.9" y="299" font-size="11" fill="#8B949E">5 mo</text><rect x="790.0" y="289" width="163.3" height="12" fill="#3572A5"><title>Python 96%</title></rect><rect x="953.3" y="289" width="6.7" height="12" fill="#89E051"><title>Shell 4%</title></rect><rect x="12" y="310" width="976" height="30" rx="4" fill="#0D1117" opacity=".45"/><rect x="24" y="317" width="4" height="16" rx="1" fill="#7A92A8"/><text x="36" y="329" font-size="12" fill="#E6EDF3">skill-navigator-hub</text><rect x="190" y="319" width="38.9" height="12" rx="2" fill="#7A92A8"/><text x="234.9" y="329" font-size="11" fill="#8B949E">19</text><rect x="340" y="319" width="8.6" height="12" rx="2" fill="#7A92A8"/><text x="354.6" y="329" font-size="11" fill="#8B949E">1</text><rect x="490" y="319" width="26.5" height="12" rx="2" fill="#7A92A8"/><text x="522.5" y="329" font-size="11" fill="#8B949E">217 KB</text><rect x="640" y="319" width="86.0" height="12" rx="2" fill="#7A92A8"/><text x="732.0" y="329" font-size="11" fill="#8B949E">21 mo</text><rect x="790.0" y="319" width="166.1" height="12" fill="#3178C6"><title>TypeScript 98%</title></rect><rect x="956.1" y="319" width="2.9" height="12" fill="#663399"><title>CSS 2%</title></rect><rect x="959.0" y="319" width="1.0" height="12" fill="#F1E05A"><title>JavaScript 1%</title></rect><rect x="24" y="347" width="4" height="16" rx="1" fill="#7A92A8"/><text x="36" y="359" font-size="12" fill="#E6EDF3">Portfolio</text><rect x="190" y="349" width="8.2" height="12" rx="2" fill="#7A92A8"/><text x="204.2" y="359" font-size="11" fill="#8B949E">4</text><rect x="340" y="349" width="17.2" height="12" rx="2" fill="#7A92A8"/><text x="363.2" y="359" font-size="11" fill="#8B949E">2</text><rect x="490" y="349" width="22.2" height="12" rx="2" fill="#7A92A8"/><text x="518.2" y="359" font-size="11" fill="#8B949E">182 KB</text><rect x="640" y="349" width="34.9" height="12" rx="2" fill="#7A92A8"/><text x="680.9" y="359" font-size="11" fill="#8B949E">8 mo</text><rect x="790.0" y="349" width="163.8" height="12" fill="#3178C6"><title>TypeScript 96%</title></rect><rect x="953.8" y="349" width="5.4" height="12" fill="#663399"><title>CSS 3%</title></rect><rect x="959.2" y="349" width="0.8" height="12" fill="#F1E05A"><title>JavaScript 0%</title></rect><rect x="12" y="370" width="976" height="30" rx="4" fill="#0D1117" opacity=".45"/><rect x="24" y="377" width="4" height="16" rx="1" fill="#8A7FA8"/><text x="36" y="389" font-size="12" fill="#E6EDF3">LifeEngine AI</text><rect x="190" y="379" width="26.6" height="12" rx="2" fill="#8A7FA8"/><text x="222.6" y="389" font-size="11" fill="#8B949E">13</text><rect x="340" y="379" width="25.8" height="12" rx="2" fill="#8A7FA8"/><text x="371.8" y="389" font-size="11" fill="#8B949E">3</text><rect x="490" y="379" width="18.9" height="12" rx="2" fill="#8A7FA8"/><text x="514.9" y="389" font-size="11" fill="#8B949E">155 KB</text><rect x="640" y="379" width="24.1" height="12" rx="2" fill="#8A7FA8"/><text x="670.1" y="389" font-size="11" fill="#8B949E">5 mo</text><rect x="790.0" y="379" width="115.2" height="12" fill="#3572A5"><title>Python 68%</title></rect><rect x="905.2" y="379" width="51.6" height="12" fill="#3178C6"><title>TypeScript 30%</title></rect><rect x="956.8" y="379" width="1.3" height="12" fill="#384D54"><title>Dockerfile 1%</title></rect><rect x="958.1" y="379" width="0.7" height="12" fill="#8B949E"><title>Mako 0%</title></rect><rect x="958.8" y="379" width="0.6" height="12" fill="#F1E05A"><title>JavaScript 0%</title></rect><rect x="959.4" y="379" width="0.6" height="12" fill="#663399"><title>CSS 0%</title></rect><rect x="24" y="407" width="4" height="16" rx="1" fill="#8A7FA8"/><text x="36" y="419" font-size="12" fill="#E6EDF3">PDF-QA RAG</text><rect x="190" y="409" width="4.1" height="12" rx="2" fill="#8A7FA8"/><text x="200.1" y="419" font-size="11" fill="#8B949E">2</text><rect x="340" y="409" width="17.2" height="12" rx="2" fill="#8A7FA8"/><text x="363.2" y="419" font-size="11" fill="#8B949E">2</text><rect x="490" y="409" width="1.5" height="12" rx="2" fill="#8A7FA8"/><text x="497.5" y="419" font-size="11" fill="#8B949E">6 KB</text><rect x="640" y="409" width="20.9" height="12" rx="2" fill="#8A7FA8"/><text x="666.9" y="419" font-size="11" fill="#8B949E">5 mo</text><rect x="790.0" y="409" width="170.0" height="12" fill="#3572A5"><title>Python 100%</title></rect></svg>