<svg xmlns="http://www.w3.org/2000/svg" width="1000" height="230" viewBox="0 0 1000 230" font-family="'JetBrains Mono','Fira Code','SFMono-Regular',Consolas,'Liberation Mono',monospace"><rect width="1000" height="230" rx="8" fill="#161B22"/><text x="24" y="30" font-size="13" fill="#E6EDF3">Commits per week, last 26 weeks</text><line x1="40" y1="190" x2="700" y2="190" stroke="#21262D"/><text x="40" y="208" font-size="10" fill="#6E7681">-26w</text><text x="700" y="208" font-size="10" text-anchor="end" fill="#6E7681">this week</text><rect x="42.0" y="155.0" width="21.4" height="35.0" rx="2" fill="#6E8CA8" opacity="0.59"/><rect x="67.4" y="176.9" width="21.4" height="13.1" rx="2" fill="#6E8CA8" opacity="0.50"/><rect x="92.8" y="190.0" width="21.4" height="0.0" rx="2" fill="#6E8CA8" opacity="0.45"/><rect x="118.2" y="181.2" width="21.4" height="8.8" rx="2" fill="#6E8CA8" opacity="0.48"/><rect x="143.5" y="106.9" width="21.4" height="83.1" rx="2" fill="#6E8CA8" opacity="0.78"/><rect x="168.9" y="50.0" width="21.4" height="140.0" rx="2" fill="#6E8CA8" opacity="1.00"/><text x="179.6" y="44.0" font-size="10" text-anchor="middle" fill="#E6EDF3">32</text><rect x="194.3" y="155.0" width="21.4" height="35.0" rx="2" fill="#6E8CA8" opacity="0.59"/><rect x="219.7" y="185.6" width="21.4" height="4.4" rx="2" fill="#6E8CA8" opacity="0.47"/><rect x="245.1" y="190.0" width="21.4" height="0.0" rx="2" fill="#6E8CA8" opacity="0.45"/><rect x="270.5" y="190.0" width="21.4" height="0.0" rx="2" fill="#6E8CA8" opacity="0.45"/><rect x="295.8" y="190.0" width="21.4" height="0.0" rx="2" fill="#6E8CA8" opacity="0.45"/><rect x="321.2" y="190.0" width="21.4" height="0.0" rx="2" fill="#6E8CA8" opacity="0.45"/><rect x="346.6" y="190.0" width="21.4" height="0.0" rx="2" fill="#6E8CA8" opacity="0.45"/><rect x="372.0" y="181.2" width="21.4" height="8.8" rx="2" fill="#6E8CA8" opacity="0.48"/><rect x="397.4" y="185.6" width="21.4" height="4.4" rx="2" fill="#6E8CA8" opacity="0.47"/><rect x="422.8" y="190.0" width="21.4" height="0.0" rx="2" fill="#6E8CA8" opacity="0.45"/><rect x="448.2" y="176.9" width="21.4" height="13.1" rx="2" fill="#6E8CA8" opacity="0.50"/><rect x="473.5" y="172.5" width="21.4" height="17.5" rx="2" fill="#6E8CA8" opacity="0.52"/><rect x="498.9" y="159.4" width="21.4" height="30.6" rx="2" fill="#6E8CA8" opacity="0.57"/><rect x="524.3" y="176.9" width="21.4" height="13.1" rx="2" fill="#6E8CA8" opacity="0.50"/><rect x="549.7" y="185.6" width="21.4" height="4.4" rx="2" fill="#6E8CA8" opacity="0.47"/><rect x="575.1" y="190.0" width="21.4" height="0.0" rx="2" fill="#6E8CA8" opacity="0.45"/><rect x="600.5" y="190.0" width="21.4" height="0.0" rx="2" fill="#6E8CA8" opacity="0.45"/><rect x="625.8" y="163.8" width="21.4" height="26.2" rx="2" fill="#6E8CA8" opacity="0.55"/><rect x="651.2" y="146.2" width="21.4" height="43.8" rx="2" fill="#6E8CA8" opacity="0.62"/><rect x="676.6" y="137.5" width="21.4" height="52.5" rx="2" fill="#6E8CA8" opacity="0.66"/><line x1="720" y1="44" x2="720" y2="200" stroke="#21262D"/><text x="740" y="62" font-size="11" fill="#8B949E">current streak</text><text x="740" y="82" font-size="18" font-weight="700" fill="#E6EDF3">1 day</text><text x="740" y="100" font-size="11" fill="#8B949E">active days, last 30</text><text x="740" y="120" font-size="18" font-weight="700" fill="#E6EDF3">8</text><text x="740" y="138" font-size="11" fill="#8B949E">commits, 26 weeks</text><text x="740" y="158" font-size="18" font-weight="700" fill="#E6EDF3">122</text><text x="740" y="176" font-size="11" fill="#8B949E">most active repo, 30 days</text><text x="740" y="196" font-size="18" font-weight="700" fill="#E6EDF3">SwiftShare</text></svg>