<svg xmlns="http://www.w3.org/2000/svg" width="1000" height="302" viewBox="0 0 1000 302" font-family="'JetBrains Mono','Fira Code','SFMono-Regular',Consolas,'Liberation Mono',monospace"><rect width="1000" height="302" rx="8" fill="#161B22"/><text x="24" y="30" font-size="13" fill="#E6EDF3">When I commit</text><text x="976" y="30" font-size="11" text-anchor="end" fill="#8B949E">local time · Asia/Kolkata</text><text x="83.2" y="48" font-size="10" text-anchor="middle" fill="#8B949E">00h</text><text x="162.8" y="48" font-size="10" text-anchor="middle" fill="#8B949E">03h</text><text x="242.2" y="48" font-size="10" text-anchor="middle" fill="#8B949E">06h</text><text x="321.8" y="48" font-size="10" text-anchor="middle" fill="#8B949E">09h</text><text x="401.2" y="48" font-size="10" text-anchor="middle" fill="#8B949E">12h</text><text x="480.8" y="48" font-size="10" text-anchor="middle" fill="#8B949E">15h</text><text x="560.2" y="48" font-size="10" text-anchor="middle" fill="#8B949E">18h</text><text x="639.8" y="48" font-size="10" text-anchor="middle" fill="#8B949E">21h</text><text x="58" y="77.0" font-size="11" text-anchor="end" fill="#8B949E">Mon</text><line x1="70" y1="73.0" x2="706.0" y2="73.0" stroke="#21262D"/><circle cx="613.2" cy="73.0" r="4.4" fill="#6E8CA8" opacity="0.53"><title>Mon 20:00 · 1</title></circle><circle cx="639.8" cy="73.0" r="7.5" fill="#6E8CA8" opacity="0.68"><title>Mon 21:00 · 7</title></circle><circle cx="666.2" cy="73.0" r="4.4" fill="#6E8CA8" opacity="0.53"><title>Mon 22:00 · 1</title></circle><circle cx="692.8" cy="73.0" r="5.8" fill="#6E8CA8" opacity="0.57"><title>Mon 23:00 · 3</title></circle><text x="58" y="103.0" font-size="11" text-anchor="end" fill="#8B949E">Tue</text><line x1="70" y1="99.0" x2="706.0" y2="99.0" stroke="#21262D"/><circle cx="83.2" cy="99.0" r="5.8" fill="#6E8CA8" opacity="0.57"><title>Tue 00:00 · 3</title></circle><circle cx="427.8" cy="99.0" r="4.4" fill="#6E8CA8" opacity="0.53"><title>Tue 13:00 · 1</title></circle><circle cx="666.2" cy="99.0" r="5.2" fill="#6E8CA8" opacity="0.55"><title>Tue 22:00 · 2</title></circle><circle cx="692.8" cy="99.0" r="5.8" fill="#6E8CA8" opacity="0.57"><title>Tue 23:00 · 3</title></circle><text x="58" y="129.0" font-size="11" text-anchor="end" fill="#8B949E">Wed</text><line x1="70" y1="125.0" x2="706.0" y2="125.0" stroke="#21262D"/><circle cx="83.2" cy="125.0" r="6.3" fill="#6E8CA8" opacity="0.60"><title>Wed 00:00 · 4</title></circle><circle cx="109.8" cy="125.0" r="6.8" fill="#6E8CA8" opacity="0.62"><title>Wed 01:00 · 5</title></circle><circle cx="242.2" cy="125.0" r="4.4" fill="#6E8CA8" opacity="0.53"><title>Wed 06:00 · 1</title></circle><circle cx="533.8" cy="125.0" r="4.4" fill="#6E8CA8" opacity="0.53"><title>Wed 17:00 · 1</title></circle><circle cx="560.2" cy="125.0" r="4.4" fill="#6E8CA8" opacity="0.53"><title>Wed 18:00 · 1</title></circle><circle cx="586.8" cy="125.0" r="4.4" fill="#6E8CA8" opacity="0.53"><title>Wed 19:00 · 1</title></circle><circle cx="666.2" cy="125.0" r="4.4" fill="#6E8CA8" opacity="0.53"><title>Wed 22:00 · 1</title></circle><text x="58" y="155.0" font-size="11" text-anchor="end" fill="#8B949E">Thu</text><line x1="70" y1="151.0" x2="706.0" y2="151.0" stroke="#21262D"/><circle cx="83.2" cy="151.0" r="4.4" fill="#6E8CA8" opacity="0.53"><title>Thu 00:00 · 1</title></circle><circle cx="692.8" cy="151.0" r="5.2" fill="#6E8CA8" opacity="0.55"><title>Thu 23:00 · 2</title></circle><text x="58" y="181.0" font-size="11" text-anchor="end" fill="#8B949E">Fri</text><line x1="70" y1="177.0" x2="706.0" y2="177.0" stroke="#21262D"/><circle cx="136.2" cy="177.0" r="7.2" fill="#6E8CA8" opacity="0.65"><title>Fri 02:00 · 6</title></circle><circle cx="215.8" cy="177.0" r="7.2" fill="#6E8CA8" opacity="0.65"><title>Fri 05:00 · 6</title></circle><circle cx="586.8" cy="177.0" r="5.2" fill="#6E8CA8" opacity="0.55"><title>Fri 19:00 · 2</title></circle><circle cx="613.2" cy="177.0" r="7.9" fill="#6E8CA8" opacity="0.70"><title>Fri 20:00 · 8</title></circle><circle cx="639.8" cy="177.0" r="6.8" fill="#6E8CA8" opacity="0.62"><title>Fri 21:00 · 5</title></circle><circle cx="666.2" cy="177.0" r="11.0" fill="#6E8CA8" opacity="1.00"><title>Fri 22:00 · 20</title></circle><circle cx="692.8" cy="177.0" r="6.3" fill="#6E8CA8" opacity="0.60"><title>Fri 23:00 · 4</title></circle><text x="58" y="207.0" font-size="11" text-anchor="end" fill="#8B949E">Sat</text><line x1="70" y1="203.0" x2="706.0" y2="203.0" stroke="#21262D"/><circle cx="83.2" cy="203.0" r="6.8" fill="#6E8CA8" opacity="0.62"><title>Sat 00:00 · 5</title></circle><circle cx="242.2" cy="203.0" r="4.4" fill="#6E8CA8" opacity="0.53"><title>Sat 06:00 · 1</title></circle><circle cx="348.2" cy="203.0" r="4.4" fill="#6E8CA8" opacity="0.53"><title>Sat 10:00 · 1</title></circle><circle cx="454.2" cy="203.0" r="4.4" fill="#6E8CA8" opacity="0.53"><title>Sat 14:00 · 1</title></circle><circle cx="480.8" cy="203.0" r="4.4" fill="#6E8CA8" opacity="0.53"><title>Sat 15:00 · 1</title></circle><circle cx="507.2" cy="203.0" r="4.4" fill="#6E8CA8" opacity="0.53"><title>Sat 16:00 · 1</title></circle><circle cx="533.8" cy="203.0" r="5.2" fill="#6E8CA8" opacity="0.55"><title>Sat 17:00 · 2</title></circle><circle cx="560.2" cy="203.0" r="5.2" fill="#6E8CA8" opacity="0.55"><title>Sat 18:00 · 2</title></circle><circle cx="692.8" cy="203.0" r="4.4" fill="#6E8CA8" opacity="0.53"><title>Sat 23:00 · 1</title></circle><text x="58" y="233.0" font-size="11" text-anchor="end" fill="#8B949E">Sun</text><line x1="70" y1="229.0" x2="706.0" y2="229.0" stroke="#21262D"/><circle cx="83.2" cy="229.0" r="7.2" fill="#6E8CA8" opacity="0.65"><title>Sun 00:00 · 6</title></circle><circle cx="109.8" cy="229.0" r="7.5" fill="#6E8CA8" opacity="0.68"><title>Sun 01:00 · 7</title></circle><circle cx="136.2" cy="229.0" r="5.8" fill="#6E8CA8" opacity="0.57"><title>Sun 02:00 · 3</title></circle><circle cx="454.2" cy="229.0" r="7.2" fill="#6E8CA8" opacity="0.65"><title>Sun 14:00 · 6</title></circle><circle cx="480.8" cy="229.0" r="6.8" fill="#6E8CA8" opacity="0.62"><title>Sun 15:00 · 5</title></circle><circle cx="560.2" cy="229.0" r="5.2" fill="#6E8CA8" opacity="0.55"><title>Sun 18:00 · 2</title></circle><circle cx="586.8" cy="229.0" r="5.2" fill="#6E8CA8" opacity="0.55"><title>Sun 19:00 · 2</title></circle><circle cx="613.2" cy="229.0" r="5.2" fill="#6E8CA8" opacity="0.55"><title>Sun 20:00 · 2</title></circle><text x="70" y="278" font-size="11" fill="#8B949E">busiest day <tspan fill="#E6EDF3" font-weight="700">Friday</tspan></text><text x="290" y="278" font-size="11" fill="#8B949E">busiest hour <tspan fill="#E6EDF3" font-weight="700">22:00</tspan></text><text x="510" y="278" font-size="11" fill="#8B949E">after 10 pm <tspan fill="#E6EDF3" font-weight="700">56%</tspan></text><text x="730" y="278" font-size="11" fill="#8B949E">weekends <tspan fill="#E6EDF3" font-weight="700">35%</tspan></text></svg>