<svg xmlns="http://www.w3.org/2000/svg" width="1000" height="454" viewBox="0 0 1000 454" font-family="'JetBrains Mono','Fira Code','SFMono-Regular',Consolas,'Liberation Mono',monospace"><rect width="1000" height="454" rx="8" fill="#161B22"/><text x="24" y="30" font-size="13" fill="#E6EDF3">Project timeline (first commit to latest)</text><line x1="230.0" y1="46" x2="230.0" y2="424" stroke="#21262D" stroke-dasharray="2 4"/><text x="230.0" y="442" font-size="10" text-anchor="middle" fill="#6E7681">Jan 25</text><line x1="297.9" y1="46" x2="297.9" y2="424" stroke="#21262D" stroke-dasharray="2 4"/><text x="297.9" y="442" font-size="10" text-anchor="middle" fill="#6E7681">Mar 25</text><line x1="368.0" y1="46" x2="368.0" y2="424" stroke="#21262D" stroke-dasharray="2 4"/><text x="368.0" y="442" font-size="10" text-anchor="middle" fill="#6E7681">May 25</text><line x1="438.2" y1="46" x2="438.2" y2="424" stroke="#21262D" stroke-dasharray="2 4"/><text x="438.2" y="442" font-size="10" text-anchor="middle" fill="#6E7681">Jul 25</text><line x1="509.5" y1="46" x2="509.5" y2="424" stroke="#21262D" stroke-dasharray="2 4"/><text x="509.5" y="442" font-size="10" text-anchor="middle" fill="#6E7681">Sep 25</text><line x1="579.7" y1="46" x2="579.7" y2="424" stroke="#21262D" stroke-dasharray="2 4"/><text x="579.7" y="442" font-size="10" text-anchor="middle" fill="#6E7681">Nov 25</text><line x1="649.9" y1="46" x2="649.9" y2="424" stroke="#21262D" stroke-dasharray="2 4"/><text x="649.9" y="442" font-size="10" text-anchor="middle" fill="#6E7681">Jan 26</text><line x1="717.8" y1="46" x2="717.8" y2="424" stroke="#21262D" stroke-dasharray="2 4"/><text x="717.8" y="442" font-size="10" text-anchor="middle" fill="#6E7681">Mar 26</text><line x1="787.9" y1="46" x2="787.9" y2="424" stroke="#21262D" stroke-dasharray="2 4"/><text x="787.9" y="442" font-size="10" text-anchor="middle" fill="#6E7681">May 26</text><line x1="858.1" y1="46" x2="858.1" y2="424" stroke="#21262D" stroke-dasharray="2 4"/><text x="858.1" y="442" font-size="10" text-anchor="middle" fill="#6E7681">Jul 26</text><line x1="929.4" y1="46" x2="929.4" y2="424" stroke="#21262D" stroke-dasharray="2 4"/><text x="929.4" y="442" font-size="10" text-anchor="middle" fill="#6E7681">Sep 26</text><text x="216" y="68" font-size="12" text-anchor="end" fill="#E6EDF3">skill-navigator-hub</text><rect x="230.0" y="59" width="734.3" height="10" rx="5" fill="#7A92A8" opacity=".85"/><circle cx="964.3" cy="64" r="4" fill="#7A92A8"/><text x="216" y="94" font-size="12" text-anchor="end" fill="#E6EDF3">Space</text><rect x="880.8" y="85" width="81.3" height="10" rx="5" fill="#6E8CA8" opacity=".85"/><circle cx="962.1" cy="90" r="4" fill="#6E8CA8"/><text x="216" y="120" font-size="12" text-anchor="end" fill="#E6EDF3">SwiftShare</text><rect x="480.2" y="111" width="479.6" height="10" rx="5" fill="#6E8CA8" opacity=".85"/><circle cx="959.8" cy="116" r="4" fill="#6E8CA8"/><text x="216" y="146" font-size="12" text-anchor="end" fill="#E6EDF3">FieldTrace</text><rect x="937.2" y="137" width="3.0" height="10" rx="5" fill="#6F9A82" opacity=".85"/><circle cx="937.2" cy="142" r="4" fill="#6F9A82"/><text x="216" y="172" font-size="12" text-anchor="end" fill="#E6EDF3">XpenseCalc</text><rect x="517.4" y="163" width="386.1" height="10" rx="5" fill="#6F9A82" opacity=".85"/><circle cx="903.5" cy="168" r="4" fill="#6F9A82"/><text x="216" y="198" font-size="12" text-anchor="end" fill="#E6EDF3">Procastinator</text><rect x="663.3" y="189" width="224.3" height="10" rx="5" fill="#8C956A" opacity=".85"/><circle cx="887.5" cy="194" r="4" fill="#8C956A"/><text x="216" y="224" font-size="12" text-anchor="end" fill="#E6EDF3">School-Management-System</text><rect x="812.8" y="215" width="3.0" height="10" rx="5" fill="#6F9A82" opacity=".85"/><circle cx="812.8" cy="220" r="4" fill="#6F9A82"/><text x="216" y="250" font-size="12" text-anchor="end" fill="#E6EDF3">indiamart-data-engineer…</text><rect x="781.6" y="241" width="27.4" height="10" rx="5" fill="#8A7FA8" opacity=".85"/><circle cx="809.0" cy="246" r="4" fill="#8A7FA8"/><text x="216" y="276" font-size="12" text-anchor="end" fill="#E6EDF3">Portfolio</text><rect x="663.3" y="267" width="131.3" height="10" rx="5" fill="#7A92A8" opacity=".85"/><circle cx="794.6" cy="272" r="4" fill="#7A92A8"/><text x="216" y="302" font-size="12" text-anchor="end" fill="#E6EDF3">LifeEngine AI</text><rect x="754.0" y="293" width="39.5" height="10" rx="5" fill="#8A7FA8" opacity=".85"/><circle cx="793.5" cy="298" r="4" fill="#8A7FA8"/><text x="216" y="328" font-size="12" text-anchor="end" fill="#E6EDF3">PDF-QA RAG</text><rect x="781.6" y="319" width="8.0" height="10" rx="5" fill="#8A7FA8" opacity=".85"/><circle cx="789.6" cy="324" r="4" fill="#8A7FA8"/><text x="216" y="354" font-size="12" text-anchor="end" fill="#E6EDF3">Placement_study_Material</text><rect x="787.9" y="345" width="3.0" height="10" rx="5" fill="#8A7FA8" opacity=".85"/><circle cx="788.8" cy="350" r="4" fill="#8A7FA8"/><text x="216" y="380" font-size="12" text-anchor="end" fill="#E6EDF3">School</text><rect x="740.3" y="371" width="19.8" height="10" rx="5" fill="#7A92A8" opacity=".85"/><circle cx="760.1" cy="376" r="4" fill="#7A92A8"/><text x="216" y="406" font-size="12" text-anchor="end" fill="#E6EDF3">Stock_Market</text><rect x="754.1" y="397" width="3.0" height="10" rx="5" fill="#8A7FA8" opacity=".85"/><circle cx="754.1" cy="402" r="4" fill="#8A7FA8"/><line x1="970.0" y1="42" x2="970.0" y2="424" stroke="#8B949E" stroke-dasharray="3 3"/><text x="966.0" y="38" font-size="10" text-anchor="end" fill="#8B949E">today</text></svg>