<svg xmlns="http://www.w3.org/2000/svg" width="480" height="190" viewBox="0 0 480 190" font-family="'JetBrains Mono','Fira Code','SFMono-Regular',Consolas,'Liberation Mono',monospace"><rect x=".5" y=".5" width="479" height="189" rx="8" fill="#161B22" stroke="#21262D"/><rect x="0" y="0" width="5" height="190" rx="2" fill="#6E8CA8"/><text x="24" y="28" font-size="10.5" letter-spacing="1" fill="#6E8CA8">REALTIME</text><circle cx="401.6" cy="24" r="3.5" fill="#6F9A82"/><text x="456" y="28" font-size="10.5" text-anchor="end" letter-spacing="1" fill="#6F9A82">ACTIVE</text><text x="24" y="50" font-size="20" font-weight="700" fill="#E6EDF3">SwiftShare</text><text x="456" y="46" font-size="11" text-anchor="end" fill="#8B949E">live ↗</text><text x="24" y="72" font-size="12.5" fill="#8B949E">Send a file, share a 6-char code. Rust/warp API, React web,</text><text x="24" y="90" font-size="12.5" fill="#8B949E">Flutter + Electron clients.</text><rect x="24" y="112" width="432" height="6" fill="#21262D"/><rect x="24.0" y="112" width="155.9" height="6" fill="#00B4AB"/><rect x="179.9" y="112" width="144.4" height="6" fill="#3178C6"/><rect x="324.3" y="112" width="73.2" height="6" fill="#DEA584"/><rect x="397.5" y="112" width="58.5" height="6" fill="#F1E05A"/><circle cx="28" cy="136" r="4" fill="#00B4AB"/><text x="37" y="140" font-size="11" fill="#8B949E">Dart 36%</text><circle cx="102.8" cy="136" r="4" fill="#3178C6"/><text x="111.8" y="140" font-size="11" fill="#8B949E">TypeScript 33%</text><circle cx="217.2" cy="136" r="4" fill="#DEA584"/><text x="226.2" y="140" font-size="11" fill="#8B949E">Rust 17%</text><line x1="24" y1="156" x2="456" y2="156" stroke="#21262D"/><text x="24" y="176" font-size="11.5" fill="#E6EDF3">fix: light and dark mode fixed</text><text x="456" y="176" font-size="10.5" text-anchor="end" fill="#6E7681">10m ago · 41 commits</text></svg>